# xmcd
#
# Track frame offsets:
#	150
#	14379
#	32477
#	48398
#	61832
#	80291
#	88553
#	102645
#	117863
#	138252
#	152863
#	171664
#	187972
#	202879
#	219089
#	234905
#	248144
#	262348
#	282730
#	298236
#
# Disc length: 4180 seconds
#
# Revision: 1
# Processed by: cddbd v1.5.2PL0 Copyright (c) Steve Scherf et al.
# Submitted via: audiograbber 1.83.01
#
DISCID=21105214
DTITLE=Various Artist - Ein Platz An Der Sonne - 20 Stars Und Hits
DYEAR=1983
DGENRE=Schlager
TTITLE0=Conny and Jean - Felicita
TTITLE1=Christian Franke - Was Wäre Wenn...
TTITLE2=Ricky King - Fly With Me To Malibu
TTITLE3=Karel Gott - Vera
TTITLE4=Gitte - Ich Bin Stark
TTITLE5=Stephan Sulke - Uschi
TTITLE6=Philip Sand - Maasholm
TTITLE7=Howard Carpendale - Ich Will Den Morgen Mit Dir Erleben
TTITLE8=Drafi Deutscher - Jeanne D'Arc (Maid Of Orleans)
TTITLE9=Gottlieb Wendehals - Jap Dadel Dip, Dadel Du
TTITLE10=Rex Gildo - Wenn Du Mich Brauchst
TTITLE11=Roland Kaiser - Dich Zu Lieben
TTITLE12=Mary Roos - Heiß Und Kalt
TTITLE13=Peter Aschberger - Ein bischen Frieden - Adios Amor
TTITLE14=Tony Marshall - Jim and Andy
TTITLE15=Christof Schirch - Ich Brauch Dich So Sehr
TTITLE16=Peter Rubin - Ich Glaub An Gefühle
TTITLE17=Katja Ebstein - Leben
TTITLE18=Heino - Sonnenschein-Glücklichsein
TTITLE19=Vico Torriani - Einfach Danke (Solo Grazie)
EXTD=
EXTT0=
EXTT1=
EXTT2=
EXTT3=
EXTT4=
EXTT5=
EXTT6=
EXTT7=
EXTT8=
EXTT9=
EXTT10=
EXTT11=
EXTT12=
EXTT13=
EXTT14=
EXTT15=
EXTT16=
EXTT17=
EXTT18=
EXTT19=
PLAYORDER=
